<svg width="39px" height="50px" viewBox="0 0 39 50" version="1.1" xmlns="http://www.w3.org/2000/svg">
    <g id="Forum" stroke="none" stroke-width="1" fill="none" fill-rule="evenodd">
        <g id="list-desktop" transform="translate(-155.000000, -25.000000)" fill="#000000" fill-rule="nonzero">
            <g id="header">
                <g id="header-contnet" transform="translate(155.000000, 25.000000)">
                    <g id="Logo">
                        <path d="M9.37292347,0.0968454538 L26.0940155,0.000228433992 C27.6904895,-0.00899623584 29.2033674,0.693245805 30.2263271,1.90771299 L30.3837164,2.10369863 L38.0633616,12.1386119 C38.4795217,12.6824041 38.764369,13.315022 38.8956661,13.9870787 C39.3523639,16.3247291 37.8858301,18.5921248 35.5970046,19.153707 L35.3866949,19.2000152 L33.444,19.579 L35.3235163,22.8484834 C36.5675272,25.0127641 35.8215012,27.7757304 33.6572205,29.0197413 C33.1986014,29.2833518 32.6972689,29.4644118 32.1760455,29.5546786 L25.8708121,30.6466358 C25.5372909,30.7043958 25.3137424,31.0215919 25.3715025,31.3551131 C25.3822665,31.417267 25.4025611,31.4773866 25.4316694,31.533348 L31.7586588,43.6971523 C32.1881992,44.5229551 31.8669651,45.5406118 31.0411623,45.9701522 C30.9577394,46.0135445 30.8708314,46.0498792 30.7813481,46.078776 L18.9858808,49.8878799 C17.9054566,50.2367806 16.7358054,49.7149328 16.2737499,48.6778442 L0.181754042,12.5591869 C-0.300380233,11.4770314 0.186033116,10.2089239 1.26818867,9.72678964 C1.49591108,9.62533216 1.73957648,9.56434767 1.9882434,9.54657461 L11.19,8.888 L7.8340825,2.69867883 C7.6959281,2.44385891 7.62277139,2.15889158 7.62109655,1.86903467 C7.6157548,0.944560997 8.32333618,0.182261197 9.22844516,0.103521472 L9.37292347,0.0968454538 L26.0940155,0.000228433992 Z M11.932,10.258 L3.05365841,11.137603 C2.95078372,11.1477933 2.85036462,11.1752621 2.75662659,11.2188537 C2.33165823,11.4164791 2.12884731,11.8975691 2.26855118,12.3325168 L2.31068253,12.4401017 L18.2526539,46.7212731 C18.3819084,46.9992184 18.6763849,47.1547472 18.9723524,47.1135779 L19.0708388,47.0924678 L28.8092452,44.2532197 C28.8460226,44.2424972 28.8818424,44.2287283 28.9163327,44.2120559 C29.228007,44.061395 29.3750021,43.7069742 29.2746395,43.3861971 L29.2370273,43.2912107 L23.4514861,31.3225823 C23.3939145,31.2034831 23.3537795,31.0767197 23.3323148,30.9461886 C23.2160065,30.2388945 23.6600718,29.5689015 24.3392477,29.3894987 L24.4692689,29.3617205 L32.0926402,28.108124 C32.4819916,28.0440986 32.8566735,27.9106444 33.1988316,27.7141208 C34.7201351,26.8403374 35.280639,24.9368723 34.5062497,23.3874456 L34.4146941,23.2168143 L32.438,19.776 L19.8326344,22.2387517 C19.1272595,22.3765581 18.4146206,22.0719591 18.0243355,21.4803443 L17.9457571,21.3492332 L11.932,10.258 Z M24.7322098,8.99023336 L24.7322098,8.99023336 L13.969,10.056 L19.5419033,20.1294725 C19.6837976,20.3859673 19.9723547,20.5247073 20.2612987,20.4753622 L31.716,18.519 L26.8777423,10.0945794 C26.5002875,9.43741043 25.8191627,9.02510456 25.0777792,8.9829501 L24.9057318,8.97984991 Z M25.7041305,0.891457409 L10.7102716,1.403822 C10.2028393,1.42116179 9.8055407,1.8465737 9.82288049,2.35400609 C9.82783416,2.49897045 9.86701924,2.6407055 9.93723322,2.76762752 L13.242,8.741 L24.7466069,7.9199581 C25.91905,7.83615966 27.0361108,8.43038521 27.6218713,9.44946799 L32.734,18.345 L35.4153661,17.887392 C37.1670558,17.5882433 38.3445729,15.9257102 38.0454241,14.1740205 C37.9556344,13.6482496 37.7365488,13.1530467 37.4078765,12.7329612 L29.5443053,2.68230205 C28.6239696,1.50599418 27.1968181,0.840449841 25.7041305,0.891457409 Z"
                              id="Combined-Shape"></path>
                    </g>
                </g>
            </g>
        </g>
    </g>
</svg>
